<svg xmlns="http://www.w3.org/2000/svg" viewBox="0 0 640 480">
<defs><linearGradient id="bg" x1="0" y1="0" x2="1" y2="1"><stop stop-color="#f7f2e7"/><stop offset="1" stop-color="#e7ddc9"/></linearGradient><linearGradient id="bag" x1="0" y1="0" x2="1" y2="1"><stop stop-color="#172a45"/><stop offset="1" stop-color="#0b1628"/></linearGradient><filter id="sh"><feDropShadow dx="0" dy="12" stdDeviation="12" flood-opacity=".22"/></filter></defs>
<rect width="640" height="480" fill="url(#bg)"/><circle cx="530" cy="70" r="90" fill="#c9a24a" opacity=".12"/>
<path d="M185 78h270l-18 220H203z" fill="url(#bag)" filter="url(#sh)"/><path d="M205 103h230v35H205z" fill="#c9a24a"/><text x="320" y="127" text-anchor="middle" font-family="Arial" font-size="18" font-weight="700" fill="#101d32">QAVIROX</text>
<text x="320" y="185" text-anchor="middle" font-family="Georgia" font-size="27" font-weight="700" fill="#f3e7c5">Asafoetida</text><text x="320" y="213" text-anchor="middle" font-family="Arial" font-size="14" fill="#d8caa7">Hing</text>
<text x="320" y="248" text-anchor="middle" font-family="Arial" font-size="11" letter-spacing="2" fill="#c9a24a">INDIA • EXPORT QUALITY</text>
<ellipse cx="320" cy="345" rx="205" ry="58" fill="#6c4a36" opacity=".22"/><path d="M118 326 Q320 286 522 326 L487 394 Q320 437 153 394Z" fill="#263449" filter="url(#sh)"/><ellipse cx="320" cy="326" rx="185" ry="50" fill="#eadfca"/>
<ellipse cx="320" cy="325" rx="165" ry="39" fill="#c9a95b"/><circle cx="100" cy="305" r="5" fill="#c9a95b" opacity="0.72"/><circle cx="137" cy="296" r="6" fill="#c9a95b" opacity="0.7999999999999999"/><circle cx="174" cy="287" r="7" fill="#c9a95b" opacity="0.88"/><circle cx="211" cy="305" r="8" fill="#c9a95b" opacity="0.72"/><circle cx="248" cy="296" r="5" fill="#c9a95b" opacity="0.7999999999999999"/><circle cx="285" cy="287" r="6" fill="#c9a95b" opacity="0.88"/><circle cx="322" cy="305" r="7" fill="#c9a95b" opacity="0.72"/><circle cx="119" cy="296" r="8" fill="#c9a95b" opacity="0.7999999999999999"/><circle cx="156" cy="287" r="5" fill="#c9a95b" opacity="0.88"/><circle cx="193" cy="305" r="6" fill="#c9a95b" opacity="0.72"/>
<text x="320" y="452" text-anchor="middle" font-family="Arial" font-size="12" font-weight="700" fill="#7b6a4a">SPICE • WHOLE / POWDER AS APPLICABLE</text></svg>